<svg version="1.1" xmlns="http://www.w3.org/2000/svg" xmlns:xlink="http://www.w3.org/1999/xlink" width="390" height="390">
    <defs>
        <clipPath id="ymiatMEPNPfe">
            <path fill="none" stroke="none" d=" M 0 0 L 933 0 L 933 583 L 0 583 L 0 0 Z"/>
        </clipPath>
    </defs>
    <g transform="scale(1,1)" clip-path="url(#ymiatMEPNPfe)">
        <g>
            <rect fill="rgb(255,255,255)" stroke="none" x="0" y="0" width="933" height="583" fill-opacity="1"/>
            <path fill="none" stroke="rgb(0,0,0)" paint-order="fill stroke markers" d=" M 289.6666666666665 189.50000000000006 C 289.6666666666665 239.29767494307652 249.29767494307646 279.6666666666666 199.5 279.6666666666666 C 149.70232505692354 279.6666666666666 109.33333333333347 239.29767494307652 109.33333333333347 189.50000000000006 C 109.33333333333347 139.7023250569236 149.70232505692354 99.33333333333353 199.5 99.33333333333353 C 249.29767494307646 99.33333333333353 289.6666666666665 139.7023250569236 289.6666666666665 189.50000000000006 Z" stroke-opacity="1" stroke-linecap="round" stroke-linejoin="round" stroke-miterlimit="10" stroke-width="5"/>
            <path fill="none" stroke="rgb(0,0,0)" paint-order="fill stroke markers" d=" M 238.64715782827895 162.4500000000001 C 238.64715782827895 169.1310757848548 233.23107578485465 174.5471578282791 226.54999999999995 174.5471578282791 C 219.86892421514528 174.5471578282791 214.452842171721 169.1310757848548 214.452842171721 162.4500000000001 C 214.452842171721 155.76892421514543 219.86892421514528 150.35284217172114 226.54999999999995 150.35284217172114 C 233.23107578485465 150.35284217172114 238.64715782827895 155.76892421514543 238.64715782827895 162.4500000000001 Z" stroke-opacity="1" stroke-linecap="round" stroke-linejoin="round" stroke-miterlimit="10" stroke-width="5"/>
            <path fill="none" stroke="rgb(0,0,0)" paint-order="fill stroke markers" d=" M 159.17624080575385 270.14751838849236 L 109.33333333333347 369.83333333333314" stroke-opacity="1" stroke-linecap="round" stroke-linejoin="round" stroke-miterlimit="10" stroke-width="5"/>
            <path fill="rgb(0,0,0)" stroke="none" paint-order="stroke fill markers" d=" M 118.85054046026164 227.32321155285277 C 118.47481544686497 227.32321155285277 118.09336610518174 227.40823197553445 117.7344476227578 227.5876912167464 L 26.975835653330847 272.9669972014599 L 26.975836552758803 272.9669972014599 C 27.97874857534777 274.29081542632713 28.65965556582597 275.87205662248016 28.901948202549367 277.594111468275 L 28.90194700719954 277.594111468275 L 119.9705156002576 232.059827171746 C 121.20546184381573 231.44235404996695 121.70602271078656 229.94067144905443 121.0885495890075 228.70572520549632 C 120.65053570844042 227.82969744436215 119.76758864364056 227.32321155285277 118.85054046026164 227.32321155285277 Z" fill-opacity="1"/>
            <path fill="none" stroke="rgb(0,0,0)" paint-order="fill stroke markers" d=" M 29 279 C 29 284.52284749830795 24.522847498307932 289 19 289 C 13.477152501692068 289 9 284.52284749830795 9 279 C 9 273.47715250169205 13.477152501692068 269 19 269 C 24.522847498307932 269 29 273.47715250169205 29 279 Z" stroke-opacity="1" stroke-linecap="round" stroke-linejoin="round" stroke-miterlimit="10" stroke-width="5"/>
            <path fill="rgb(0,0,0)" stroke="none" paint-order="stroke fill markers" d=" M 381.4717900414332 97.44422497883325 L 381.47179004143317 97.44422497883325 C 381.72158556959306 97.66105058645371 381.92376998508286 97.92403669308369 382.0694013108328 98.21529934458361 C 381.9178121851305 97.91212109317905 381.71293190268494 97.65320412503067 381.4717900795804 97.44422497883325 Z M 382.07090384445235 98.21830944192054 L 382.0709038444523 98.21830944192054 C 382.2156595930486 98.50879144957304 382.3042094722553 98.82729992177796 382.3277009617983 99.15612981798697 L 382.3277009096929 99.15612981798697 C 382.30528732832744 98.83885000474977 382.22156234990433 98.52062112096351 382.0709038826594 98.21830944192054 Z M 373.316953706915 99.79643817466781 L 230.86609105701854 171.02186949961603 C 229.63114481346042 171.6393426213951 229.13058394648957 173.1410252223076 229.74805706826862 174.37597146586572 C 230.18607094883572 175.25199922699989 231.06901801363557 175.75848511850927 231.98606619701448 175.75848511850927 C 232.36179121041116 175.75848511850927 232.74324055209436 175.6734646958276 233.1021590345183 175.49400545461563 L 375.5530216844148 104.2685741296674 L 376.6710556731647 100.91447216341767 L 376.6710556731646 100.91447216341767 L 373.316953706915 99.79643817466781 Z" fill-opacity="1"/>
            <path fill="rgb(0,0,0)" stroke="none" paint-order="stroke fill markers" d=" M 377.46162508820674 98.54276391829141 L 372.9894891332072 111.95917178329015 C 372.55286970159676 113.26903007812136 373.26076966846017 114.68483001184815 374.5706279632914 115.12144944345854 C 375.8804862581226 115.55806887506895 377.2962861918494 114.85016890820555 377.73290562345977 113.54031061337433 L 382.2050415784594 100.1239027483756 C 382.6416610100697 98.81404445354441 381.93376104320635 97.39824451981762 380.62390274837514 96.9616250882072 C 379.314044453544 96.52500565659679 377.8982445198171 97.23290562346023 377.46162508820674 98.54276391829141 Z M 365.6263560532922 97.23290562346021 L 379.042763918291 101.7050415784598 C 380.3526222131221 102.14166101007022 381.768422146849 101.43376104320679 382.2050415784594 100.12390274837561 C 382.64166101006975 98.81404445354444 381.93376104320635 97.39824451981765 380.62390274837514 96.96162508820721 L 367.20749488337646 92.48948913320763 C 365.8976365885452 92.05286970159723 364.4818366548184 92.76076966846064 364.04521722320806 94.07062796329181 C 363.6085977915976 95.38048625812303 364.316497758461 96.79628619184982 365.6263560532922 97.23290562346021 Z" fill-opacity="1"/>
            <path fill="none" stroke="rgb(0,0,0)" paint-order="fill stroke markers" d=" M 215.71793747711408 157.06412504577193 L 289.6666666666665 9.166666666666998" stroke-opacity="1" stroke-linecap="round" stroke-linejoin="round" stroke-miterlimit="10" stroke-width="5"/>
        </g>
    </g>
</svg>
